<svg width="21" height="22" viewBox="0 0 21 22" fill="none" xmlns="http://www.w3.org/2000/svg">
<path d="M9.3634 21C13.9722 21 17.7268 17.301 17.7268 12.7155C17.7268 8.13001 13.9722 4.43106 9.3634 4.43106C4.75461 4.43106 1 8.13001 1 12.7155C1 17.301 4.75461 21 9.3634 21Z" stroke="#000000" stroke-width="2"/>
<path d="M11.9019 13.6742C13.7385 12.8265 15.4104 11.0608 15.4969 8.26774L19.1606 5.10405C19.1612 5.10351 19.1618 5.10297 19.1625 5.10243C19.7794 4.57222 20.0987 3.4643 19.3461 2.69334L18.3912 1.71503C17.6788 0.985236 16.6384 1.21995 16.086 1.76798L6.66174 11.1168C6.11337 11.6608 5.85803 12.7079 6.57214 13.4395C7.19244 14.0749 8.14874 14.2949 9.01372 14.3083C9.92313 14.3224 10.9452 14.1158 11.9019 13.6742Z" fill="white" stroke="#000000" stroke-width="2"/>
</svg>
